<?xml version="1.0" standalone="no"?>
<!-- Generator: Adobe Fireworks 10, Export SVG Extension by Aaron Beall (http://fireworks.abeall.com) . Version: 0.6.1  -->
<!DOCTYPE svg PUBLIC "-//W3C//DTD SVG 1.1//EN" "http://www.w3.org/Graphics/SVG/1.1/DTD/svg11.dtd">
<svg id="a%20%281%29-Page%201" viewBox="0 0 1023 767" style="background-color:#ffffff00" version="1.1"
	xmlns="http://www.w3.org/2000/svg" xmlns:xlink="http://www.w3.org/1999/xlink" xml:space="preserve"
	x="0px" y="0px" width="1023px" height="767px"
>
	<g id="Layer%201">
		<path d="M 549.5 250.5 C 522.3436 233.97 470.3333 234.3333 448 253 " stroke="#000000" stroke-width="4" fill="none"/>
		<path d="M 387.6667 290.6667 C 359.6667 308 342 359.3333 353.3333 402.6667 " stroke="#000000" stroke-width="4" fill="none"/>
		<path d="M 376 460.3333 C 383.7047 481.8756 422.6667 532 502 526 " stroke="#000000" stroke-width="4" fill="none"/>
		<path d="M 449 237 L 448.3125 252.625 L 462 258 " stroke="#000000" stroke-width="4" fill="none"/>
		<path d="M 345.0114 398.9796 L 354.0992 403.5496 L 359 395 " stroke="#000000" stroke-width="4" fill="none"/>
		<path d="M 492 518 C 493.4941 520.0209 501.4815 523.2215 502 525.625 " stroke="#000000" stroke-width="4" fill="none"/>
		<path d="M 501.6667 526 L 501.625 526 C 500.7526 526.8092 495.1147 534.9041 495 536 " stroke="#000000" stroke-width="4" fill="none"/>
		<path d="M 649.3333 289.6667 C 648.4459 352.0664 649.3125 414.5839 649.3125 477 " stroke="#000000" stroke-width="4" fill="none"/>
		<path d="M 641.3333 472.6667 C 643.0748 472.2383 647.7562 477.0096 649 478 L 649.625 477.3125 L 653 473.625 C 653.1574 473.434 658.6841 469.6113 659 470 " stroke="#000000" stroke-width="4" fill="none"/>
	</g>
	<g id="Background">
	</g>
	<g id="Layer%202">
	</g>
</svg>