<?xml version="1.0" standalone="no"?>
<!-- Generator: Adobe Fireworks 10, Export SVG Extension by Aaron Beall (http://fireworks.abeall.com) . Version: 0.6.1  -->
<!DOCTYPE svg PUBLIC "-//W3C//DTD SVG 1.1//EN" "http://www.w3.org/Graphics/SVG/1.1/DTD/svg11.dtd">
<svg id="b%20%281%29-Page%201" viewBox="0 0 1023 766" style="background-color:#ffffff00" version="1.1"
	xmlns="http://www.w3.org/2000/svg" xmlns:xlink="http://www.w3.org/1999/xlink" xml:space="preserve"
	x="0px" y="0px" width="1023px" height="766px"
>
	<g id="Background">
	</g>
	<g id="Layer%201">
		<path d="M 374.5 88.5 L 374.5 458.5 " stroke="#000000" stroke-width="4" fill="none"/>
		<path d="M 365.5 451.5 L 373.5 459.5 L 383.5 451.5 C 380.3804 455.2435 377.8084 458.1916 374.5 461.5 " stroke="#000000" stroke-width="4" fill="none"/>
		<path d="M 627 300 C 653.5483 319.4516 678 388 642 453 " stroke="#000000" stroke-width="4" fill="none"/>
		<path d="M 654 455 L 641 454 L 636.5544 444.5974 " stroke="#000000" stroke-width="4" fill="none"/>
		<path d="M 473 255.5 C 500.1564 238.97 552.1666 239.3333 574.5 258 " stroke="#000000" stroke-width="4" fill="none"/>
		<path d="M 573 248 L 574.1875 257.625 L 566 262 " stroke="#000000" stroke-width="4" fill="none"/>
		<path d="M 574.5 516.0294 C 547.3436 532.5594 495.3334 532.1961 473 513.5294 " stroke="#000000" stroke-width="4" fill="none"/>
		<path d="M 474.5 523.5294 L 473.3125 513.9044 L 481.5 509.5294 " stroke="#000000" stroke-width="4" fill="none"/>
	</g>
</svg>