<?xml version="1.0" standalone="no"?>
<!-- Generator: Adobe Fireworks 10, Export SVG Extension by Aaron Beall (http://fireworks.abeall.com) . Version: 0.6.1  -->
<!DOCTYPE svg PUBLIC "-//W3C//DTD SVG 1.1//EN" "http://www.w3.org/Graphics/SVG/1.1/DTD/svg11.dtd">
<svg id="d%20%281%29-Page%201" viewBox="0 0 1024 767" style="background-color:#ffffff00" version="1.1"
	xmlns="http://www.w3.org/2000/svg" xmlns:xlink="http://www.w3.org/1999/xlink" xml:space="preserve"
	x="0px" y="0px" width="1024px" height="767px"
>
	<g id="Background">
	</g>
	<g id="Layer%201">
		<path d="M 651.0991 88.5 L 651.0991 458.5 " stroke="#000000" stroke-width="4" fill="none"/>
		<path d="M 660.0991 451.5 L 652.0991 459.5 L 642.0991 451.5 C 645.2187 455.2435 647.7906 458.1916 651.0991 461.5 " stroke="#000000" stroke-width="4" fill="none"/>
		<path d="M 398.5991 300 C 372.0508 319.4516 347.5991 388 383.5991 453 " stroke="#000000" stroke-width="4" fill="none"/>
		<path d="M 371.5991 455 L 384.5991 454 L 389.0447 444.5974 " stroke="#000000" stroke-width="4" fill="none"/>
		<path d="M 552.5991 255.5 C 525.4427 238.97 473.4325 239.3333 451.0991 258 " stroke="#000000" stroke-width="4" fill="none"/>
		<path d="M 452.5991 248 L 451.4116 257.625 L 459.5991 262 " stroke="#000000" stroke-width="4" fill="none"/>
		<path d="M 451.0991 516.0294 C 478.2555 532.5594 530.2657 532.1961 552.5991 513.5294 " stroke="#000000" stroke-width="4" fill="none"/>
		<path d="M 551.0991 523.5294 L 552.2866 513.9044 L 544.0991 509.5294 " stroke="#000000" stroke-width="4" fill="none"/>
	</g>
</svg>