<?xml version="1.0" standalone="no"?>
<!-- Generator: Adobe Fireworks 10, Export SVG Extension by Aaron Beall (http://fireworks.abeall.com) . Version: 0.6.1  -->
<!DOCTYPE svg PUBLIC "-//W3C//DTD SVG 1.1//EN" "http://www.w3.org/Graphics/SVG/1.1/DTD/svg11.dtd">
<svg id="e-Page%201" viewBox="0 0 1020 764" style="background-color:#ffffff00" version="1.1"
	xmlns="http://www.w3.org/2000/svg" xmlns:xlink="http://www.w3.org/1999/xlink" xml:space="preserve"
	x="0px" y="0px" width="1020px" height="764px"
>
	<g id="Background">
		<path d="M 645 346 C 623 241 499.3333 232.3333 477 251 " stroke="#000000" stroke-width="4" fill="none"/>
		<path d="M 421 276 C 373 300 358 366.3333 369.3333 409.6667 " stroke="#000000" stroke-width="4" fill="none"/>
		<path d="M 395 476 C 402.7047 497.5422 487 572 604 508 " stroke="#000000" stroke-width="4" fill="none"/>
		<path d="M 478 235 L 477.3125 250.625 L 491 256 " stroke="#000000" stroke-width="4" fill="none"/>
		<path d="M 361.0114 405.9796 L 370.0992 410.5496 L 375 402 " stroke="#000000" stroke-width="4" fill="none"/>
		<path d="M 595 502 C 596.9432 503.7221 605.6418 505.3252 606.6945 507.625 " stroke="#000000" stroke-width="4" fill="none"/>
		<path d="M 606.4444 507.0667 L 606.4028 507.075 C 605.7101 508.0587 601.8712 517.2811 602 518.4 " stroke="#000000" stroke-width="4" fill="none"/>
		<path d="M 454.5 421.5 L 583.5 421.5 " stroke="#000000" stroke-width="4" fill="none"/>
		<path d="M 575.5 410.5 L 585.5 420.5 L 586.5 420.5 C 582.4096 425.1748 578.7718 429.2282 574.5 433.5 " stroke="#000000" stroke-width="4" fill="none"/>
	</g>
	<g id="Layer%201">
	</g>
</svg>