<?xml version="1.0" standalone="no"?>
<!-- Generator: Adobe Fireworks 10, Export SVG Extension by Aaron Beall (http://fireworks.abeall.com) . Version: 0.6.1  -->
<!DOCTYPE svg PUBLIC "-//W3C//DTD SVG 1.1//EN" "http://www.w3.org/Graphics/SVG/1.1/DTD/svg11.dtd">
<svg id="f-Page%201" viewBox="0 0 1017 767" style="background-color:#ffffff00" version="1.1"
	xmlns="http://www.w3.org/2000/svg" xmlns:xlink="http://www.w3.org/1999/xlink" xml:space="preserve"
	x="0px" y="0px" width="1017px" height="767px"
>
	<g id="Background">
	</g>
	<g id="Layer%201">
		<path d="M 613 77 C 591 25 475.3333 23.3333 461.3333 88.3333 " stroke="#000000" stroke-width="4" fill="none"/>
		<path d="M 453.5 140.5 L 453.5 248.5 " stroke="#000000" stroke-width="4" fill="none"/>
		<path d="M 453.5 324.5 L 453.5 468.5 " stroke="#000000" stroke-width="4" fill="none"/>
		<path d="M 520.5 321.5 L 555.5 321.5 " stroke="#000000" stroke-width="4" fill="none"/>
		<path d="M 462.5 90.5 L 453.5 83.5 L 462.5 90.5 Z" stroke="#000000" stroke-width="4" fill="none"/>
		<path d="M 461.5 90.5 L 470.5 83.5 L 461.5 90.5 Z" stroke="#000000" stroke-width="4" fill="none"/>
		<path d="M 444.5 240.5 L 453.5 249.5 " stroke="#000000" stroke-width="4" fill="none"/>
		<path d="M 461.5 240.5 L 452.5 249.5 " stroke="#000000" stroke-width="4" fill="none"/>
		<path d="M 549 330 L 558 321 " stroke="#000000" stroke-width="4" fill="none"/>
		<path d="M 549 313 L 558 322 " stroke="#000000" stroke-width="4" fill="none"/>
		<path d="M 445.5 460.5 L 453.5 468.5 " stroke="#000000" stroke-width="4" fill="none"/>
		<path d="M 461.5 460.5 L 453.5 468.5 " stroke="#000000" stroke-width="4" fill="none"/>
	</g>
</svg>