<?xml version="1.0" standalone="no"?>
<!-- Generator: Adobe Fireworks 10, Export SVG Extension by Aaron Beall (http://fireworks.abeall.com) . Version: 0.6.1  -->
<!DOCTYPE svg PUBLIC "-//W3C//DTD SVG 1.1//EN" "http://www.w3.org/Graphics/SVG/1.1/DTD/svg11.dtd">
<svg id="p%20%281%29-Page%201" viewBox="0 0 1022 762" style="background-color:#ffffff00" version="1.1"
	xmlns="http://www.w3.org/2000/svg" xmlns:xlink="http://www.w3.org/1999/xlink" xml:space="preserve"
	x="0px" y="0px" width="1022px" height="762px"
>
	<g id="Background">
	</g>
	<g id="Layer%201">
		<path d="M 372.5001 303 L 372.5001 673 " stroke="#000000" stroke-width="4" fill="none"/>
		<path d="M 363.5001 666 L 371.5001 674 L 381.5001 666 C 378.3806 669.7435 375.8086 672.6915 372.5001 676 " stroke="#000000" stroke-width="4" fill="none"/>
		<path d="M 631 296 C 661 332 676.0001 397.5 640.0001 462.5 " stroke="#000000" stroke-width="4" fill="none"/>
		<path d="M 652.0001 464.5 L 639.0001 463.5 L 634.5545 454.0974 " stroke="#000000" stroke-width="4" fill="none"/>
		<path d="M 567.5001 515 C 540.3438 531.53 488.3335 531.1667 466.0001 512.5 " stroke="#000000" stroke-width="4" fill="none"/>
		<path d="M 467.5001 522.5 L 466.3126 512.875 L 474.5001 508.5 " stroke="#000000" stroke-width="4" fill="none"/>
		<path d="M 471.0001 248.4706 C 498.1565 231.9406 550.1667 232.3039 572.5001 250.9706 " stroke="#000000" stroke-width="4" fill="none"/>
		<path d="M 571.0001 240.9706 L 572.1876 250.5956 L 564.0001 254.9706 " stroke="#000000" stroke-width="4" fill="none"/>
	</g>
</svg>