<?xml version="1.0" standalone="no"?>
<!-- Generator: Adobe Fireworks 10, Export SVG Extension by Aaron Beall (http://fireworks.abeall.com) . Version: 0.6.1  -->
<!DOCTYPE svg PUBLIC "-//W3C//DTD SVG 1.1//EN" "http://www.w3.org/Graphics/SVG/1.1/DTD/svg11.dtd">
<svg id="q-Page%201" viewBox="0 0 1015 760" style="background-color:#ffffff00" version="1.1"
	xmlns="http://www.w3.org/2000/svg" xmlns:xlink="http://www.w3.org/1999/xlink" xml:space="preserve"
	x="0px" y="0px" width="1015px" height="760px"
>
	<g id="Background">
	</g>
	<g id="Layer%201">
		<path d="M 642.0431 280 L 642.0431 570 " stroke="#000000" stroke-width="4" fill="none"/>
		<path d="M 651.0431 563 L 643.0431 571 L 633.0431 563 C 636.1627 566.7435 638.7346 569.6915 642.0431 573 " stroke="#000000" stroke-width="4" fill="none"/>
		<path d="M 393.5432 296 C 363.5432 332 348.5431 397.5 384.5431 462.5 " stroke="#000000" stroke-width="4" fill="none"/>
		<path d="M 372.5431 464.5 L 385.5431 463.5 L 389.9887 454.0974 " stroke="#000000" stroke-width="4" fill="none"/>
		<path d="M 457.0431 515 C 484.1995 531.53 536.2097 531.1667 558.5431 512.5 " stroke="#000000" stroke-width="4" fill="none"/>
		<path d="M 557.0431 522.5 L 558.2306 512.875 L 550.0431 508.5 " stroke="#000000" stroke-width="4" fill="none"/>
		<path d="M 553.5431 248.4706 C 526.3867 231.9406 474.3765 232.3039 452.0431 250.9706 " stroke="#000000" stroke-width="4" fill="none"/>
		<path d="M 453.5431 240.9706 L 452.3556 250.5956 L 460.5431 254.9706 " stroke="#000000" stroke-width="4" fill="none"/>
		<path d="M 627 716 L 683.2103 653.2576 " stroke="#000000" stroke-width="4" fill="none"/>
		<path d="M 685.5795 663.1031 L 684.3674 650.2335 " stroke="#000000" stroke-width="4" fill="none"/>
		<path d="M 672.3256 652.3309 L 685.1484 650.8676 " stroke="#000000" stroke-width="4" fill="none"/>
	</g>
</svg>