<?xml version="1.0" standalone="no"?>
<!-- Generator: Adobe Fireworks 10, Export SVG Extension by Aaron Beall (http://fireworks.abeall.com) . Version: 0.6.1  -->
<!DOCTYPE svg PUBLIC "-//W3C//DTD SVG 1.1//EN" "http://www.w3.org/Graphics/SVG/1.1/DTD/svg11.dtd">
<svg id="y-Page%201" viewBox="0 0 1021 765" style="background-color:#ffffff00" version="1.1"
	xmlns="http://www.w3.org/2000/svg" xmlns:xlink="http://www.w3.org/1999/xlink" xml:space="preserve"
	x="0px" y="0px" width="1021px" height="765px"
>
	<g id="Background">
	</g>
	<g id="Layer%201">
		<path d="M 389 471 C 396.7047 492.5422 437.6667 533 517 527 " stroke="#000000" stroke-width="4" fill="none"/>
		<path d="M 507 519 C 508.4941 521.0209 516.4814 524.2215 517 526.625 " stroke="#000000" stroke-width="4" fill="none"/>
		<path d="M 516.6666 527 L 516.625 527 C 515.7526 527.8092 510.1147 535.9041 510 537 " stroke="#000000" stroke-width="4" fill="none"/>
		<path d="M 608 681 C 567 746 436.6667 742.1167 409 681 " stroke="#000000" stroke-width="4" fill="none"/>
		<path d="M 407.9088 678.0342 L 402 687 L 407.9088 678.0342 Z" stroke="#000000" stroke-width="4" fill="none"/>
		<path d="M 406.9723 678.3854 L 420 682 L 406.9723 678.3854 Z" stroke="#000000" stroke-width="4" fill="none"/>
		<path d="M 645.5 324.5 L 645.5 553.5 " stroke="#000000" stroke-width="4" fill="none"/>
		<path d="M 637.5 547.5 L 646.5 556.5 " stroke="#000000" stroke-width="4" fill="none"/>
		<path d="M 654.5 547.5 L 645.5 556.5 " stroke="#000000" stroke-width="4" fill="none"/>
		<path d="M 369.5 277.5 L 369.5 367.5 " stroke="#000000" stroke-width="4" fill="none"/>
		<path d="M 361.5 361.5 L 370.5 370.5 " stroke="#000000" stroke-width="4" fill="none"/>
		<path d="M 378.5 361.5 L 369.5 370.5 " stroke="#000000" stroke-width="4" fill="none"/>
	</g>
</svg>