<?xml version="1.0" standalone="no"?>
<!-- Generator: Adobe Fireworks 10, Export SVG Extension by Aaron Beall (http://fireworks.abeall.com) . Version: 0.6.1  -->
<!DOCTYPE svg PUBLIC "-//W3C//DTD SVG 1.1//EN" "http://www.w3.org/Graphics/SVG/1.1/DTD/svg11.dtd">
<svg id="G-Page%201" viewBox="0 0 1017 761" style="background-color:#ffffff00" version="1.1"
	xmlns="http://www.w3.org/2000/svg" xmlns:xlink="http://www.w3.org/1999/xlink" xml:space="preserve"
	x="0px" y="0px" width="1017px" height="761px"
>
	<g id="Background">
	</g>
	<g id="Layer%201">
		<path d="M 560 114 C 532.8436 97.47 463.3333 104.3333 441 123 " stroke="#000000" stroke-width="4" fill="none"/>
		<path d="M 325 223 C 296 257 284 336.3333 295.3333 379.6667 " stroke="#000000" stroke-width="4" fill="none"/>
		<path d="M 346 529 C 353.7047 550.5422 415.6667 615 495 609 " stroke="#000000" stroke-width="4" fill="none"/>
		<path d="M 442 107 L 441.3125 122.625 L 455 128 " stroke="#000000" stroke-width="4" fill="none"/>
		<path d="M 287.0114 375.9796 L 296.0992 380.5496 L 301 372 " stroke="#000000" stroke-width="4" fill="none"/>
		<path d="M 485 601 C 486.4941 603.0209 494.4814 606.2215 495 608.625 " stroke="#000000" stroke-width="4" fill="none"/>
		<path d="M 494.6666 609 L 494.625 609 C 493.7526 609.8092 488.1147 617.9041 488 619 " stroke="#000000" stroke-width="4" fill="none"/>
		<path d="M 599.5 321.5 L 668.5 321.5 " stroke="#000000" stroke-width="4" fill="none"/>
		<path d="M 662 330 L 671 321 " stroke="#000000" stroke-width="4" fill="none"/>
		<path d="M 662 313 L 671 322 " stroke="#000000" stroke-width="4" fill="none"/>
		<path d="M 679.25 406.75 L 679.25 555.75 " stroke="#000000" stroke-width="4" fill="none"/>
		<path d="M 670.75 549.25 L 679.75 558.25 " stroke="#000000" stroke-width="4" fill="none"/>
		<path d="M 687.75 549.25 L 678.75 558.25 " stroke="#000000" stroke-width="4" fill="none"/>
	</g>
</svg>