<?xml version="1.0" standalone="no"?>
<!-- Generator: Adobe Fireworks 10, Export SVG Extension by Aaron Beall (http://fireworks.abeall.com) . Version: 0.6.1  -->
<!DOCTYPE svg PUBLIC "-//W3C//DTD SVG 1.1//EN" "http://www.w3.org/Graphics/SVG/1.1/DTD/svg11.dtd">
<svg id="U%20%281%29-Page%201" viewBox="0 0 1019 758" style="background-color:#ffffff00" version="1.1"
	xmlns="http://www.w3.org/2000/svg" xmlns:xlink="http://www.w3.org/1999/xlink" xml:space="preserve"
	x="0px" y="0px" width="1019px" height="758px"
>
	<g id="Background">
	</g>
	<g id="Layer%201">
		<g>
			<path d="M 429.5 469.2167 C 451.5 521.2167 567.1666 522.8833 581.1666 457.8833 " stroke="#000000" stroke-width="4" fill="none"/>
			<path d="M 580 455.7167 L 589 462.7167 L 580 455.7167 Z" stroke="#000000" stroke-width="4" fill="none"/>
			<path d="M 581 455.7167 L 572 462.7167 L 581 455.7167 Z" stroke="#000000" stroke-width="4" fill="none"/>
		</g>
		<path d="M 429.5 221.5 L 429.5 421.5 " stroke="#000000" stroke-width="4" fill="none"/>
		<path d="M 421.5 415.5 L 430.5 424.5 " stroke="#000000" stroke-width="4" fill="none"/>
		<path d="M 438.5 415.5 L 429.5 424.5 " stroke="#000000" stroke-width="4" fill="none"/>
		<path d="M 580.5 424.5 L 580.5 224.5 " stroke="#000000" stroke-width="4" fill="none"/>
		<path d="M 572.5 230.5 L 581.5 221.5 " stroke="#000000" stroke-width="4" fill="none"/>
		<path d="M 589.5 230.5 L 580.5 221.5 " stroke="#000000" stroke-width="4" fill="none"/>
		<path d="M 672.5 208.5 L 672.5 518.5 " stroke="#000000" stroke-width="4" fill="none"/>
		<path d="M 664.5 512.5 L 673.5 521.5 " stroke="#000000" stroke-width="4" fill="none"/>
		<path d="M 681.5 512.5 L 672.5 521.5 " stroke="#000000" stroke-width="4" fill="none"/>
	</g>
</svg>